<mxfile host="app.diagrams.net" modified="2024-03-26T13:33:36.233Z" agent="Mozilla/5.0 (Windows NT 10.0; Win64; x64) AppleWebKit/537.36 (KHTML, like Gecko) Chrome/123.0.0.0 Safari/537.36" etag="OWeeck8U2d4Z-PbMNSRE" version="24.1.0" type="device">
  <diagram name="Page-1" id="c3DXX-ls8rsChrSWCdla">
    <mxGraphModel dx="2261" dy="1949" grid="1" gridSize="10" guides="1" tooltips="1" connect="1" arrows="1" fold="1" page="1" pageScale="1" pageWidth="827" pageHeight="1169" math="0" shadow="0">
      <root>
        <mxCell id="0" />
        <mxCell id="1" parent="0" />
        <mxCell id="5vfyrwRNB4mkbEv5aYu6-1" value="ŽIVOTINJA" style="rounded=0;whiteSpace=wrap;html=1;" parent="1" vertex="1">
          <mxGeometry x="210" y="160" width="120" height="60" as="geometry" />
        </mxCell>
        <mxCell id="5vfyrwRNB4mkbEv5aYu6-2" value="STANIŠTE" style="rounded=0;whiteSpace=wrap;html=1;" parent="1" vertex="1">
          <mxGeometry x="580" y="160" width="120" height="60" as="geometry" />
        </mxCell>
        <mxCell id="5vfyrwRNB4mkbEv5aYu6-3" value="ŽIVI" style="rhombus;whiteSpace=wrap;html=1;" parent="1" vertex="1">
          <mxGeometry x="390" y="150" width="130" height="80" as="geometry" />
        </mxCell>
        <mxCell id="5vfyrwRNB4mkbEv5aYu6-4" value="" style="endArrow=none;html=1;rounded=0;exitX=1;exitY=0.5;exitDx=0;exitDy=0;entryX=0;entryY=0.5;entryDx=0;entryDy=0;" parent="1" source="5vfyrwRNB4mkbEv5aYu6-1" target="5vfyrwRNB4mkbEv5aYu6-3" edge="1">
          <mxGeometry width="50" height="50" relative="1" as="geometry">
            <mxPoint x="400" y="220" as="sourcePoint" />
            <mxPoint x="450" y="170" as="targetPoint" />
          </mxGeometry>
        </mxCell>
        <mxCell id="5vfyrwRNB4mkbEv5aYu6-5" value="" style="endArrow=none;html=1;rounded=0;entryX=1;entryY=0.5;entryDx=0;entryDy=0;exitX=0;exitY=0.5;exitDx=0;exitDy=0;" parent="1" source="5vfyrwRNB4mkbEv5aYu6-2" target="5vfyrwRNB4mkbEv5aYu6-3" edge="1">
          <mxGeometry width="50" height="50" relative="1" as="geometry">
            <mxPoint x="400" y="220" as="sourcePoint" />
            <mxPoint x="450" y="170" as="targetPoint" />
          </mxGeometry>
        </mxCell>
        <mxCell id="5vfyrwRNB4mkbEv5aYu6-6" value="POSJETITELJ" style="rounded=0;whiteSpace=wrap;html=1;" parent="1" vertex="1">
          <mxGeometry x="950" y="160" width="120" height="60" as="geometry" />
        </mxCell>
        <mxCell id="5vfyrwRNB4mkbEv5aYu6-7" value="POSJEĆUJE" style="rhombus;whiteSpace=wrap;html=1;" parent="1" vertex="1">
          <mxGeometry x="760" y="150" width="130" height="80" as="geometry" />
        </mxCell>
        <mxCell id="5vfyrwRNB4mkbEv5aYu6-8" value="" style="endArrow=none;html=1;rounded=0;entryX=1;entryY=0.5;entryDx=0;entryDy=0;exitX=0;exitY=0.5;exitDx=0;exitDy=0;" parent="1" edge="1">
          <mxGeometry width="50" height="50" relative="1" as="geometry">
            <mxPoint x="760" y="189.5" as="sourcePoint" />
            <mxPoint x="700" y="189.5" as="targetPoint" />
          </mxGeometry>
        </mxCell>
        <mxCell id="5vfyrwRNB4mkbEv5aYu6-9" value="" style="endArrow=none;html=1;rounded=0;entryX=1;entryY=0.5;entryDx=0;entryDy=0;exitX=0;exitY=0.5;exitDx=0;exitDy=0;" parent="1" edge="1">
          <mxGeometry width="50" height="50" relative="1" as="geometry">
            <mxPoint x="950" y="189.5" as="sourcePoint" />
            <mxPoint x="890" y="189.5" as="targetPoint" />
          </mxGeometry>
        </mxCell>
        <mxCell id="5vfyrwRNB4mkbEv5aYu6-10" value="1" style="text;html=1;align=center;verticalAlign=middle;whiteSpace=wrap;rounded=0;" parent="1" vertex="1">
          <mxGeometry x="530" y="160" width="60" height="30" as="geometry" />
        </mxCell>
        <mxCell id="5vfyrwRNB4mkbEv5aYu6-11" value="N" style="text;html=1;align=center;verticalAlign=middle;whiteSpace=wrap;rounded=0;" parent="1" vertex="1">
          <mxGeometry x="320" y="160" width="60" height="30" as="geometry" />
        </mxCell>
        <mxCell id="5vfyrwRNB4mkbEv5aYu6-12" value="N" style="text;html=1;align=center;verticalAlign=middle;whiteSpace=wrap;rounded=0;" parent="1" vertex="1">
          <mxGeometry x="690" y="160" width="60" height="30" as="geometry" />
        </mxCell>
        <mxCell id="5vfyrwRNB4mkbEv5aYu6-13" value="M" style="text;html=1;align=center;verticalAlign=middle;whiteSpace=wrap;rounded=0;" parent="1" vertex="1">
          <mxGeometry x="900" y="160" width="60" height="30" as="geometry" />
        </mxCell>
        <mxCell id="5vfyrwRNB4mkbEv5aYu6-14" value="ZAPOSLENIK" style="rounded=0;whiteSpace=wrap;html=1;" parent="1" vertex="1">
          <mxGeometry x="580" y="420" width="120" height="60" as="geometry" />
        </mxCell>
        <mxCell id="5vfyrwRNB4mkbEv5aYu6-15" value="BRINE SE" style="rhombus;whiteSpace=wrap;html=1;" parent="1" vertex="1">
          <mxGeometry x="575" y="280" width="130" height="80" as="geometry" />
        </mxCell>
        <mxCell id="5vfyrwRNB4mkbEv5aYu6-19" value="" style="endArrow=none;html=1;rounded=0;entryX=1;entryY=0.5;entryDx=0;entryDy=0;" parent="1" edge="1">
          <mxGeometry width="50" height="50" relative="1" as="geometry">
            <mxPoint x="639.5" y="280" as="sourcePoint" />
            <mxPoint x="639.5" y="220" as="targetPoint" />
          </mxGeometry>
        </mxCell>
        <mxCell id="5vfyrwRNB4mkbEv5aYu6-20" value="" style="endArrow=none;html=1;rounded=0;entryX=1;entryY=0.5;entryDx=0;entryDy=0;" parent="1" edge="1">
          <mxGeometry width="50" height="50" relative="1" as="geometry">
            <mxPoint x="639.5" y="420" as="sourcePoint" />
            <mxPoint x="639.5" y="360" as="targetPoint" />
          </mxGeometry>
        </mxCell>
        <mxCell id="5vfyrwRNB4mkbEv5aYu6-21" value="N" style="text;html=1;align=center;verticalAlign=middle;whiteSpace=wrap;rounded=0;" parent="1" vertex="1">
          <mxGeometry x="590" y="220" width="60" height="30" as="geometry" />
        </mxCell>
        <mxCell id="5vfyrwRNB4mkbEv5aYu6-22" value="M" style="text;html=1;align=center;verticalAlign=middle;whiteSpace=wrap;rounded=0;" parent="1" vertex="1">
          <mxGeometry x="590" y="390" width="60" height="30" as="geometry" />
        </mxCell>
        <mxCell id="5vfyrwRNB4mkbEv5aYu6-24" value="EVIDENCIJA ŽIVOTINJA" style="rounded=0;whiteSpace=wrap;html=1;" parent="1" vertex="1">
          <mxGeometry x="210" y="420" width="120" height="60" as="geometry" />
        </mxCell>
        <mxCell id="5vfyrwRNB4mkbEv5aYu6-25" value="" style="endArrow=none;html=1;rounded=0;entryX=1;entryY=0.5;entryDx=0;entryDy=0;" parent="1" edge="1">
          <mxGeometry width="50" height="50" relative="1" as="geometry">
            <mxPoint x="269.5" y="280" as="sourcePoint" />
            <mxPoint x="269.5" y="220" as="targetPoint" />
          </mxGeometry>
        </mxCell>
        <mxCell id="5vfyrwRNB4mkbEv5aYu6-26" value="STANJE" style="rhombus;whiteSpace=wrap;html=1;" parent="1" vertex="1">
          <mxGeometry x="205" y="280" width="130" height="80" as="geometry" />
        </mxCell>
        <mxCell id="5vfyrwRNB4mkbEv5aYu6-27" value="" style="endArrow=none;html=1;rounded=0;entryX=1;entryY=0.5;entryDx=0;entryDy=0;" parent="1" edge="1">
          <mxGeometry width="50" height="50" relative="1" as="geometry">
            <mxPoint x="269.5" y="420" as="sourcePoint" />
            <mxPoint x="269.5" y="360" as="targetPoint" />
          </mxGeometry>
        </mxCell>
        <mxCell id="5vfyrwRNB4mkbEv5aYu6-28" value="EVIDENCIJA ZAPOSLENIKA" style="rounded=0;whiteSpace=wrap;html=1;" parent="1" vertex="1">
          <mxGeometry x="580" y="680" width="120" height="60" as="geometry" />
        </mxCell>
        <mxCell id="5vfyrwRNB4mkbEv5aYu6-29" value="STANJE" style="rhombus;whiteSpace=wrap;html=1;" parent="1" vertex="1">
          <mxGeometry x="575" y="540" width="130" height="80" as="geometry" />
        </mxCell>
        <mxCell id="5vfyrwRNB4mkbEv5aYu6-30" value="" style="endArrow=none;html=1;rounded=0;entryX=1;entryY=0.5;entryDx=0;entryDy=0;" parent="1" edge="1">
          <mxGeometry width="50" height="50" relative="1" as="geometry">
            <mxPoint x="639.5" y="540" as="sourcePoint" />
            <mxPoint x="639.5" y="480" as="targetPoint" />
          </mxGeometry>
        </mxCell>
        <mxCell id="5vfyrwRNB4mkbEv5aYu6-31" value="" style="endArrow=none;html=1;rounded=0;entryX=1;entryY=0.5;entryDx=0;entryDy=0;" parent="1" edge="1">
          <mxGeometry width="50" height="50" relative="1" as="geometry">
            <mxPoint x="639.5" y="680" as="sourcePoint" />
            <mxPoint x="639.5" y="620" as="targetPoint" />
          </mxGeometry>
        </mxCell>
        <mxCell id="5vfyrwRNB4mkbEv5aYu6-32" value="1" style="text;html=1;align=center;verticalAlign=middle;whiteSpace=wrap;rounded=0;" parent="1" vertex="1">
          <mxGeometry x="220" y="220" width="60" height="30" as="geometry" />
        </mxCell>
        <mxCell id="5vfyrwRNB4mkbEv5aYu6-35" value="1" style="text;html=1;align=center;verticalAlign=middle;whiteSpace=wrap;rounded=0;" parent="1" vertex="1">
          <mxGeometry x="220" y="390" width="60" height="30" as="geometry" />
        </mxCell>
        <mxCell id="5vfyrwRNB4mkbEv5aYu6-36" value="HRANA" style="rounded=0;whiteSpace=wrap;html=1;" parent="1" vertex="1">
          <mxGeometry x="205" y="-100" width="120" height="60" as="geometry" />
        </mxCell>
        <mxCell id="5vfyrwRNB4mkbEv5aYu6-37" value="" style="endArrow=none;html=1;rounded=0;entryX=1;entryY=0.5;entryDx=0;entryDy=0;" parent="1" edge="1">
          <mxGeometry width="50" height="50" relative="1" as="geometry">
            <mxPoint x="269.5" y="160" as="sourcePoint" />
            <mxPoint x="269.5" y="100" as="targetPoint" />
          </mxGeometry>
        </mxCell>
        <mxCell id="5vfyrwRNB4mkbEv5aYu6-38" value="JEDE" style="rhombus;whiteSpace=wrap;html=1;" parent="1" vertex="1">
          <mxGeometry x="205" y="20" width="130" height="80" as="geometry" />
        </mxCell>
        <mxCell id="5vfyrwRNB4mkbEv5aYu6-39" value="" style="endArrow=none;html=1;rounded=0;entryX=1;entryY=0.5;entryDx=0;entryDy=0;" parent="1" edge="1">
          <mxGeometry width="50" height="50" relative="1" as="geometry">
            <mxPoint x="269.5" y="20" as="sourcePoint" />
            <mxPoint x="269.5" y="-40" as="targetPoint" />
          </mxGeometry>
        </mxCell>
        <mxCell id="5vfyrwRNB4mkbEv5aYu6-40" value="N" style="text;html=1;align=center;verticalAlign=middle;whiteSpace=wrap;rounded=0;" parent="1" vertex="1">
          <mxGeometry x="220" y="130" width="60" height="30" as="geometry" />
        </mxCell>
        <mxCell id="5vfyrwRNB4mkbEv5aYu6-43" value="1" style="text;html=1;align=center;verticalAlign=middle;whiteSpace=wrap;rounded=0;" parent="1" vertex="1">
          <mxGeometry x="220" y="-40" width="60" height="30" as="geometry" />
        </mxCell>
        <mxCell id="5vfyrwRNB4mkbEv5aYu6-44" value="STANJE" style="rhombus;whiteSpace=wrap;html=1;" parent="1" vertex="1">
          <mxGeometry x="205" y="-240" width="130" height="80" as="geometry" />
        </mxCell>
        <mxCell id="5vfyrwRNB4mkbEv5aYu6-45" value="" style="endArrow=none;html=1;rounded=0;entryX=1;entryY=0.5;entryDx=0;entryDy=0;" parent="1" edge="1">
          <mxGeometry width="50" height="50" relative="1" as="geometry">
            <mxPoint x="269.5" y="-100" as="sourcePoint" />
            <mxPoint x="269.5" y="-160" as="targetPoint" />
          </mxGeometry>
        </mxCell>
        <mxCell id="5vfyrwRNB4mkbEv5aYu6-46" value="" style="endArrow=none;html=1;rounded=0;entryX=1;entryY=0.5;entryDx=0;entryDy=0;exitX=0;exitY=0.5;exitDx=0;exitDy=0;" parent="1" target="5vfyrwRNB4mkbEv5aYu6-48" edge="1">
          <mxGeometry width="50" height="50" relative="1" as="geometry">
            <mxPoint x="205" y="-200.5" as="sourcePoint" />
            <mxPoint x="145" y="-200.5" as="targetPoint" />
          </mxGeometry>
        </mxCell>
        <mxCell id="5vfyrwRNB4mkbEv5aYu6-47" value="" style="endArrow=none;html=1;rounded=0;entryX=1;entryY=0.5;entryDx=0;entryDy=0;exitX=0;exitY=0.5;exitDx=0;exitDy=0;" parent="1" source="5vfyrwRNB4mkbEv5aYu6-49" edge="1">
          <mxGeometry width="50" height="50" relative="1" as="geometry">
            <mxPoint x="395" y="-200.5" as="sourcePoint" />
            <mxPoint x="335" y="-200.5" as="targetPoint" />
          </mxGeometry>
        </mxCell>
        <mxCell id="5vfyrwRNB4mkbEv5aYu6-48" value="NABAVA&lt;div&gt;HRANE&lt;/div&gt;" style="rounded=0;whiteSpace=wrap;html=1;" parent="1" vertex="1">
          <mxGeometry x="20" y="-230" width="120" height="60" as="geometry" />
        </mxCell>
        <mxCell id="5vfyrwRNB4mkbEv5aYu6-49" value="POTROŠNJA&lt;div&gt;HRANE&lt;/div&gt;" style="rounded=0;whiteSpace=wrap;html=1;" parent="1" vertex="1">
          <mxGeometry x="400" y="-230" width="120" height="60" as="geometry" />
        </mxCell>
        <mxCell id="5vfyrwRNB4mkbEv5aYu6-56" value="POSAO" style="ellipse;whiteSpace=wrap;html=1;" parent="1" vertex="1">
          <mxGeometry x="760" y="525" width="130" height="60" as="geometry" />
        </mxCell>
        <mxCell id="5vfyrwRNB4mkbEv5aYu6-61" value="" style="endArrow=none;html=1;rounded=0;entryX=1;entryY=0.5;entryDx=0;entryDy=0;" parent="1" edge="1">
          <mxGeometry width="50" height="50" relative="1" as="geometry">
            <mxPoint x="639.5" y="800" as="sourcePoint" />
            <mxPoint x="639.5" y="740" as="targetPoint" />
          </mxGeometry>
        </mxCell>
        <mxCell id="5vfyrwRNB4mkbEv5aYu6-63" value="&lt;u&gt;ID&lt;/u&gt;" style="ellipse;whiteSpace=wrap;html=1;" parent="1" vertex="1">
          <mxGeometry x="1080" y="80" width="130" height="60" as="geometry" />
        </mxCell>
        <mxCell id="5vfyrwRNB4mkbEv5aYu6-64" value="IME I PREZIME" style="ellipse;whiteSpace=wrap;html=1;" parent="1" vertex="1">
          <mxGeometry x="1130" y="160" width="130" height="60" as="geometry" />
        </mxCell>
        <mxCell id="5vfyrwRNB4mkbEv5aYu6-65" value="DATUM" style="ellipse;whiteSpace=wrap;html=1;" parent="1" vertex="1">
          <mxGeometry x="1090" y="240" width="130" height="60" as="geometry" />
        </mxCell>
        <mxCell id="5vfyrwRNB4mkbEv5aYu6-66" value="" style="endArrow=none;html=1;rounded=0;entryX=1;entryY=0.5;entryDx=0;entryDy=0;exitX=0;exitY=0.5;exitDx=0;exitDy=0;" parent="1" edge="1">
          <mxGeometry width="50" height="50" relative="1" as="geometry">
            <mxPoint x="1130" y="189" as="sourcePoint" />
            <mxPoint x="1070" y="189" as="targetPoint" />
          </mxGeometry>
        </mxCell>
        <mxCell id="5vfyrwRNB4mkbEv5aYu6-67" value="" style="endArrow=none;html=1;rounded=0;entryX=1;entryY=0.5;entryDx=0;entryDy=0;exitX=0.285;exitY=1.033;exitDx=0;exitDy=0;exitPerimeter=0;" parent="1" source="5vfyrwRNB4mkbEv5aYu6-63" edge="1">
          <mxGeometry width="50" height="50" relative="1" as="geometry">
            <mxPoint x="1130" y="174.5" as="sourcePoint" />
            <mxPoint x="1070" y="174.5" as="targetPoint" />
          </mxGeometry>
        </mxCell>
        <mxCell id="5vfyrwRNB4mkbEv5aYu6-68" value="" style="endArrow=none;html=1;rounded=0;entryX=1;entryY=0.5;entryDx=0;entryDy=0;exitX=0.231;exitY=0;exitDx=0;exitDy=0;exitPerimeter=0;" parent="1" source="5vfyrwRNB4mkbEv5aYu6-65" edge="1">
          <mxGeometry width="50" height="50" relative="1" as="geometry">
            <mxPoint x="1130" y="210" as="sourcePoint" />
            <mxPoint x="1070" y="210" as="targetPoint" />
          </mxGeometry>
        </mxCell>
        <mxCell id="5vfyrwRNB4mkbEv5aYu6-69" value="&lt;u&gt;NAZIV&lt;/u&gt;" style="ellipse;whiteSpace=wrap;html=1;" parent="1" vertex="1">
          <mxGeometry x="575" y="40" width="130" height="60" as="geometry" />
        </mxCell>
        <mxCell id="5vfyrwRNB4mkbEv5aYu6-70" value="MAX KAPACITET" style="ellipse;whiteSpace=wrap;html=1;" parent="1" vertex="1">
          <mxGeometry x="450" y="80" width="130" height="60" as="geometry" />
        </mxCell>
        <mxCell id="5vfyrwRNB4mkbEv5aYu6-71" value="TRENUTNI BROJ ŽIVOTINJA" style="ellipse;whiteSpace=wrap;html=1;" parent="1" vertex="1">
          <mxGeometry x="705" y="70" width="130" height="60" as="geometry" />
        </mxCell>
        <mxCell id="5vfyrwRNB4mkbEv5aYu6-72" value="" style="endArrow=none;html=1;rounded=0;entryX=1;entryY=0.5;entryDx=0;entryDy=0;" parent="1" edge="1">
          <mxGeometry width="50" height="50" relative="1" as="geometry">
            <mxPoint x="639.5" y="160" as="sourcePoint" />
            <mxPoint x="639.5" y="100" as="targetPoint" />
          </mxGeometry>
        </mxCell>
        <mxCell id="5vfyrwRNB4mkbEv5aYu6-73" value="" style="endArrow=none;html=1;rounded=0;entryX=0;entryY=1;entryDx=0;entryDy=0;" parent="1" target="5vfyrwRNB4mkbEv5aYu6-71" edge="1">
          <mxGeometry width="50" height="50" relative="1" as="geometry">
            <mxPoint x="659.5" y="160" as="sourcePoint" />
            <mxPoint x="659.5" y="100" as="targetPoint" />
          </mxGeometry>
        </mxCell>
        <mxCell id="5vfyrwRNB4mkbEv5aYu6-74" value="" style="endArrow=none;html=1;rounded=0;" parent="1" target="5vfyrwRNB4mkbEv5aYu6-70" edge="1">
          <mxGeometry width="50" height="50" relative="1" as="geometry">
            <mxPoint x="619.5" y="160" as="sourcePoint" />
            <mxPoint x="619.5" y="100" as="targetPoint" />
          </mxGeometry>
        </mxCell>
        <mxCell id="5vfyrwRNB4mkbEv5aYu6-75" value="&lt;u&gt;OIB&lt;/u&gt;" style="ellipse;whiteSpace=wrap;html=1;" parent="1" vertex="1">
          <mxGeometry x="760" y="385" width="130" height="60" as="geometry" />
        </mxCell>
        <mxCell id="5vfyrwRNB4mkbEv5aYu6-76" value="IME I PREZIME" style="ellipse;whiteSpace=wrap;html=1;" parent="1" vertex="1">
          <mxGeometry x="760" y="315" width="130" height="60" as="geometry" />
        </mxCell>
        <mxCell id="5vfyrwRNB4mkbEv5aYu6-77" value="ADRESA" style="ellipse;whiteSpace=wrap;html=1;" parent="1" vertex="1">
          <mxGeometry x="760" y="455" width="130" height="60" as="geometry" />
        </mxCell>
        <mxCell id="5vfyrwRNB4mkbEv5aYu6-79" value="" style="endArrow=none;html=1;rounded=0;entryX=1;entryY=0.5;entryDx=0;entryDy=0;exitX=0;exitY=0.5;exitDx=0;exitDy=0;" parent="1" source="5vfyrwRNB4mkbEv5aYu6-76" edge="1">
          <mxGeometry width="50" height="50" relative="1" as="geometry">
            <mxPoint x="760" y="430" as="sourcePoint" />
            <mxPoint x="700" y="430" as="targetPoint" />
          </mxGeometry>
        </mxCell>
        <mxCell id="5vfyrwRNB4mkbEv5aYu6-80" value="" style="endArrow=none;html=1;rounded=0;entryX=1;entryY=0.5;entryDx=0;entryDy=0;exitX=0;exitY=0.5;exitDx=0;exitDy=0;" parent="1" source="5vfyrwRNB4mkbEv5aYu6-75" edge="1">
          <mxGeometry width="50" height="50" relative="1" as="geometry">
            <mxPoint x="760" y="445" as="sourcePoint" />
            <mxPoint x="700" y="445" as="targetPoint" />
          </mxGeometry>
        </mxCell>
        <mxCell id="5vfyrwRNB4mkbEv5aYu6-81" value="" style="endArrow=none;html=1;rounded=0;entryX=1;entryY=0.5;entryDx=0;entryDy=0;exitX=0;exitY=0.5;exitDx=0;exitDy=0;" parent="1" source="5vfyrwRNB4mkbEv5aYu6-77" edge="1">
          <mxGeometry width="50" height="50" relative="1" as="geometry">
            <mxPoint x="760" y="458" as="sourcePoint" />
            <mxPoint x="700" y="458" as="targetPoint" />
          </mxGeometry>
        </mxCell>
        <mxCell id="5vfyrwRNB4mkbEv5aYu6-82" value="" style="endArrow=none;html=1;rounded=0;entryX=1;entryY=0.5;entryDx=0;entryDy=0;exitX=0;exitY=0.5;exitDx=0;exitDy=0;" parent="1" source="5vfyrwRNB4mkbEv5aYu6-56" edge="1">
          <mxGeometry width="50" height="50" relative="1" as="geometry">
            <mxPoint x="760" y="470" as="sourcePoint" />
            <mxPoint x="700" y="470" as="targetPoint" />
          </mxGeometry>
        </mxCell>
        <mxCell id="5vfyrwRNB4mkbEv5aYu6-83" value="STATUS" style="ellipse;whiteSpace=wrap;html=1;" parent="1" vertex="1">
          <mxGeometry x="450" y="760" width="130" height="60" as="geometry" />
        </mxCell>
        <mxCell id="5vfyrwRNB4mkbEv5aYu6-84" value="DATUM I VRIJEME" style="ellipse;whiteSpace=wrap;html=1;" parent="1" vertex="1">
          <mxGeometry x="705" y="760" width="130" height="60" as="geometry" />
        </mxCell>
        <mxCell id="5vfyrwRNB4mkbEv5aYu6-85" value="&lt;u&gt;ID ZAPOSLENIKA&lt;/u&gt;" style="ellipse;whiteSpace=wrap;html=1;" parent="1" vertex="1">
          <mxGeometry x="575" y="800" width="130" height="60" as="geometry" />
        </mxCell>
        <mxCell id="5vfyrwRNB4mkbEv5aYu6-86" value="" style="endArrow=none;html=1;rounded=0;entryX=1;entryY=0.5;entryDx=0;entryDy=0;exitX=0.969;exitY=0.283;exitDx=0;exitDy=0;exitPerimeter=0;" parent="1" source="5vfyrwRNB4mkbEv5aYu6-83" edge="1">
          <mxGeometry width="50" height="50" relative="1" as="geometry">
            <mxPoint x="619.5" y="800" as="sourcePoint" />
            <mxPoint x="619.5" y="740" as="targetPoint" />
          </mxGeometry>
        </mxCell>
        <mxCell id="5vfyrwRNB4mkbEv5aYu6-87" value="" style="endArrow=none;html=1;rounded=0;entryX=1;entryY=0.5;entryDx=0;entryDy=0;exitX=0.054;exitY=0.25;exitDx=0;exitDy=0;exitPerimeter=0;" parent="1" source="5vfyrwRNB4mkbEv5aYu6-84" edge="1">
          <mxGeometry width="50" height="50" relative="1" as="geometry">
            <mxPoint x="659.5" y="800" as="sourcePoint" />
            <mxPoint x="659.5" y="740" as="targetPoint" />
          </mxGeometry>
        </mxCell>
        <mxCell id="5vfyrwRNB4mkbEv5aYu6-88" value="&lt;u&gt;ID&lt;/u&gt;" style="ellipse;whiteSpace=wrap;html=1;" parent="1" vertex="1">
          <mxGeometry x="20" y="160" width="130" height="60" as="geometry" />
        </mxCell>
        <mxCell id="5vfyrwRNB4mkbEv5aYu6-89" value="IME" style="ellipse;whiteSpace=wrap;html=1;" parent="1" vertex="1">
          <mxGeometry x="20" y="230" width="130" height="60" as="geometry" />
        </mxCell>
        <mxCell id="5vfyrwRNB4mkbEv5aYu6-90" value="VRSTA" style="ellipse;whiteSpace=wrap;html=1;" parent="1" vertex="1">
          <mxGeometry x="20" y="90" width="130" height="60" as="geometry" />
        </mxCell>
        <mxCell id="5vfyrwRNB4mkbEv5aYu6-91" value="" style="endArrow=none;html=1;rounded=0;exitX=1;exitY=0.5;exitDx=0;exitDy=0;entryX=0;entryY=0.5;entryDx=0;entryDy=0;" parent="1" edge="1">
          <mxGeometry width="50" height="50" relative="1" as="geometry">
            <mxPoint x="150" y="189" as="sourcePoint" />
            <mxPoint x="210" y="189" as="targetPoint" />
          </mxGeometry>
        </mxCell>
        <mxCell id="5vfyrwRNB4mkbEv5aYu6-92" value="" style="endArrow=none;html=1;rounded=0;exitX=0.938;exitY=0.8;exitDx=0;exitDy=0;entryX=0;entryY=0.5;entryDx=0;entryDy=0;exitPerimeter=0;" parent="1" source="5vfyrwRNB4mkbEv5aYu6-90" edge="1">
          <mxGeometry width="50" height="50" relative="1" as="geometry">
            <mxPoint x="150" y="174.5" as="sourcePoint" />
            <mxPoint x="210" y="174.5" as="targetPoint" />
          </mxGeometry>
        </mxCell>
        <mxCell id="5vfyrwRNB4mkbEv5aYu6-93" value="" style="endArrow=none;html=1;rounded=0;exitX=0.946;exitY=0.2;exitDx=0;exitDy=0;entryX=0;entryY=0.5;entryDx=0;entryDy=0;exitPerimeter=0;" parent="1" source="5vfyrwRNB4mkbEv5aYu6-89" edge="1">
          <mxGeometry width="50" height="50" relative="1" as="geometry">
            <mxPoint x="150" y="205" as="sourcePoint" />
            <mxPoint x="210" y="205" as="targetPoint" />
          </mxGeometry>
        </mxCell>
        <mxCell id="5vfyrwRNB4mkbEv5aYu6-94" value="&lt;u&gt;ID ŽIVOTINJE&lt;/u&gt;" style="ellipse;whiteSpace=wrap;html=1;" parent="1" vertex="1">
          <mxGeometry x="205" y="540" width="130" height="60" as="geometry" />
        </mxCell>
        <mxCell id="5vfyrwRNB4mkbEv5aYu6-95" value="" style="endArrow=none;html=1;rounded=0;entryX=1;entryY=0.5;entryDx=0;entryDy=0;" parent="1" edge="1">
          <mxGeometry width="50" height="50" relative="1" as="geometry">
            <mxPoint x="269.5" y="540" as="sourcePoint" />
            <mxPoint x="269.5" y="480" as="targetPoint" />
          </mxGeometry>
        </mxCell>
        <mxCell id="5vfyrwRNB4mkbEv5aYu6-96" value="DATUM" style="ellipse;whiteSpace=wrap;html=1;" parent="1" vertex="1">
          <mxGeometry x="90" y="500" width="130" height="60" as="geometry" />
        </mxCell>
        <mxCell id="5vfyrwRNB4mkbEv5aYu6-97" value="BROJ" style="ellipse;whiteSpace=wrap;html=1;" parent="1" vertex="1">
          <mxGeometry x="320" y="500" width="130" height="60" as="geometry" />
        </mxCell>
        <mxCell id="5vfyrwRNB4mkbEv5aYu6-98" value="" style="endArrow=none;html=1;rounded=0;entryX=1;entryY=0.5;entryDx=0;entryDy=0;exitX=1;exitY=0;exitDx=0;exitDy=0;" parent="1" source="5vfyrwRNB4mkbEv5aYu6-96" edge="1">
          <mxGeometry width="50" height="50" relative="1" as="geometry">
            <mxPoint x="249.5" y="540" as="sourcePoint" />
            <mxPoint x="249.5" y="480" as="targetPoint" />
          </mxGeometry>
        </mxCell>
        <mxCell id="5vfyrwRNB4mkbEv5aYu6-99" value="" style="endArrow=none;html=1;rounded=0;entryX=1;entryY=0.5;entryDx=0;entryDy=0;exitX=0;exitY=0;exitDx=0;exitDy=0;" parent="1" source="5vfyrwRNB4mkbEv5aYu6-97" edge="1">
          <mxGeometry width="50" height="50" relative="1" as="geometry">
            <mxPoint x="289.5" y="540" as="sourcePoint" />
            <mxPoint x="289.5" y="480" as="targetPoint" />
          </mxGeometry>
        </mxCell>
        <mxCell id="5vfyrwRNB4mkbEv5aYu6-100" value="&lt;u&gt;VRSTA HRANE&lt;/u&gt;" style="ellipse;whiteSpace=wrap;html=1;" parent="1" vertex="1">
          <mxGeometry x="15" y="-350" width="130" height="60" as="geometry" />
        </mxCell>
        <mxCell id="5vfyrwRNB4mkbEv5aYu6-101" value="" style="endArrow=none;html=1;rounded=0;entryX=1;entryY=0.5;entryDx=0;entryDy=0;" parent="1" edge="1">
          <mxGeometry width="50" height="50" relative="1" as="geometry">
            <mxPoint x="79.5" y="-230" as="sourcePoint" />
            <mxPoint x="79.5" y="-290" as="targetPoint" />
          </mxGeometry>
        </mxCell>
        <mxCell id="5vfyrwRNB4mkbEv5aYu6-102" value="CIJENA" style="ellipse;whiteSpace=wrap;html=1;" parent="1" vertex="1">
          <mxGeometry x="130" y="-310" width="130" height="60" as="geometry" />
        </mxCell>
        <mxCell id="5vfyrwRNB4mkbEv5aYu6-103" value="&lt;u&gt;VRSTA HRANE&lt;/u&gt;" style="ellipse;whiteSpace=wrap;html=1;" parent="1" vertex="1">
          <mxGeometry x="590" y="-230" width="130" height="60" as="geometry" />
        </mxCell>
        <mxCell id="5vfyrwRNB4mkbEv5aYu6-104" value="TRENUTNA ZALIHA" style="ellipse;whiteSpace=wrap;html=1;" parent="1" vertex="1">
          <mxGeometry x="590" y="-300" width="130" height="60" as="geometry" />
        </mxCell>
        <mxCell id="5vfyrwRNB4mkbEv5aYu6-105" value="KOLIČINA ZA NABAVU" style="ellipse;whiteSpace=wrap;html=1;" parent="1" vertex="1">
          <mxGeometry x="-110" y="-310" width="130" height="60" as="geometry" />
        </mxCell>
        <mxCell id="5vfyrwRNB4mkbEv5aYu6-106" value="" style="endArrow=none;html=1;rounded=0;entryX=1;entryY=1;entryDx=0;entryDy=0;" parent="1" target="5vfyrwRNB4mkbEv5aYu6-105" edge="1">
          <mxGeometry width="50" height="50" relative="1" as="geometry">
            <mxPoint x="60" y="-230" as="sourcePoint" />
            <mxPoint x="60" y="-290" as="targetPoint" />
          </mxGeometry>
        </mxCell>
        <mxCell id="5vfyrwRNB4mkbEv5aYu6-107" value="" style="endArrow=none;html=1;rounded=0;" parent="1" target="5vfyrwRNB4mkbEv5aYu6-102" edge="1">
          <mxGeometry width="50" height="50" relative="1" as="geometry">
            <mxPoint x="99.5" y="-230" as="sourcePoint" />
            <mxPoint x="99.5" y="-290" as="targetPoint" />
          </mxGeometry>
        </mxCell>
        <mxCell id="5vfyrwRNB4mkbEv5aYu6-108" value="" style="endArrow=none;html=1;rounded=0;entryX=1;entryY=0.5;entryDx=0;entryDy=0;exitX=0;exitY=0.5;exitDx=0;exitDy=0;" parent="1" source="5vfyrwRNB4mkbEv5aYu6-103" edge="1">
          <mxGeometry width="50" height="50" relative="1" as="geometry">
            <mxPoint x="585" y="-200" as="sourcePoint" />
            <mxPoint x="520" y="-200.5" as="targetPoint" />
          </mxGeometry>
        </mxCell>
        <mxCell id="5vfyrwRNB4mkbEv5aYu6-109" value="" style="endArrow=none;html=1;rounded=0;entryX=1;entryY=0.5;entryDx=0;entryDy=0;exitX=0;exitY=1;exitDx=0;exitDy=0;" parent="1" source="5vfyrwRNB4mkbEv5aYu6-104" edge="1">
          <mxGeometry width="50" height="50" relative="1" as="geometry">
            <mxPoint x="585" y="-219.5" as="sourcePoint" />
            <mxPoint x="520" y="-220" as="targetPoint" />
          </mxGeometry>
        </mxCell>
        <mxCell id="6jYwi-LomyYdRfBL35yO-12" value="1" style="text;html=1;align=center;verticalAlign=middle;whiteSpace=wrap;rounded=0;" vertex="1" parent="1">
          <mxGeometry x="590" y="485" width="60" height="30" as="geometry" />
        </mxCell>
        <mxCell id="6jYwi-LomyYdRfBL35yO-13" value="1" style="text;html=1;align=center;verticalAlign=middle;whiteSpace=wrap;rounded=0;" vertex="1" parent="1">
          <mxGeometry x="590" y="650" width="60" height="30" as="geometry" />
        </mxCell>
      </root>
    </mxGraphModel>
  </diagram>
</mxfile>
